PLOT

On a Mars colony in the year 2145, an officer in a rebel militia discovers that his sister, who was abducted a dozen years before, is
still alive and has been raised as a soldier whose goal is to bring about the destruction of her brother's faction.


Encoded By .......: BigPerm
Runtime ..........: 1h 31mn
File Size ........: 855 MB
Resolution .......: 720 x 480 
http://www.imdb.com/title/tt1693872/
Genre ............: Sci-Fi
Language .........: English
Subtitles ........: None
Video
ID : 0
Format : MPEG-4 Visual
Format profile : Advanced Simple@L5
Format settings, BVOP : Yes
Format settings, QPel : No
Format settings, GMC : No warppoints
Format settings, Matrix : Default (H.263)
Muxing mode : Packed bitstream
Codec ID : XVID
Codec ID/Hint : XviD
Duration : 1h 31mn
Bit rate : 851 Kbps
Width : 720 pixels
Height : 480 pixels
Display aspect ratio : 4.615
Frame rate : 23.976 fps
Standard : NTSC
Color space : YUV
Chroma subsampling : 4:2:0
Bit depth : 8 bits
Scan type : Progressive
Compression mode : Lossy
Bits/(Pixel*Frame) : 0.103
Stream size : 556 MiB (65%)
Writing library : XviD 64
Audio
ID : 1
Format : AC-3
Format/Info : Audio Coding 3
Mode extension : CM (complete main)
Codec ID : 2000
Duration : 1h 31mn
Bit rate mode : Constant
Bit rate : 448 Kbps
Channel(s) : 6 channels
Channel positions : Front: L C R, Side: L R, LFE
Sampling rate : 48.0 KHz
Bit depth : 16 bits
Compression mode : Lossy
Stream size : 293 MiB (34%)
Alignment : Split accross interleaves
Interleave, duration : 42 ms (1.00 video frame)
Interleave, preload duration : 500 ms